<svg aria-hidden="true" style="width:0;height:0;position:absolute;overflow:hidden" xmlns="http://www.w3.org/2000/svg"><defs><symbol id="icon-youTube" viewBox="0 0 32 32"><path fill="#358698" style="fill:var(--color1,#358698)" opacity=".23" d="M7.111 0h17.778A7.111 7.111 0 0 1 32 7.111v17.778A7.111 7.111 0 0 1 24.889 32H7.111A7.111 7.111 0 0 1 0 24.889V7.111A7.111 7.111 0 0 1 7.111 0z"/><path fill="#195c71" style="fill:var(--color2,#195c71)" d="m16.39 22.204-3.611-.067c-1.169-.024-2.341.023-3.487-.22-1.744-.364-1.867-2.149-1.996-3.646a26.14 26.14 0 0 1 .227-6.335c.19-1.171.936-1.87 2.091-1.946 3.898-.276 7.822-.243 11.712-.114.411.012.824.076 1.229.15 1.999.358 2.048 2.381 2.178 4.083.129 1.72.075 3.449-.172 5.158-.198 1.415-.577 2.601-2.178 2.715-2.005.15-3.964.27-5.975.232 0-.009-.011-.009-.017-.009zm-2.123-3.581c1.511-.887 2.993-1.758 4.496-2.639-1.514-.887-2.993-1.758-4.496-2.639v5.278z"/></symbol><symbol id="icon-linkedIn" viewBox="0 0 32 32"><path fill="#358698" style="fill:var(--color1,#358698)" opacity=".23" d="M7.111 0h17.778A7.111 7.111 0 0 1 32 7.111v17.778A7.111 7.111 0 0 1 24.889 32H7.111A7.111 7.111 0 0 1 0 24.889V7.111A7.111 7.111 0 0 1 7.111 0z"/><path fill="#195c71" style="fill:var(--color2,#195c71)" d="M8 10.151c0-.513.18-.936.541-1.27s.829-.5 1.405-.5c.566 0 1.024.164 1.374.493.36.339.541.78.541 1.324 0 .493-.175.903-.525 1.231-.36.339-.834.508-1.421.508H9.9c-.566 0-1.024-.169-1.375-.508S8 10.665 8 10.152zm.201 13.468V13.337h3.429v10.282H8.201zm5.328 0h3.429v-5.741c0-.359.041-.636.124-.831.144-.349.363-.644.656-.885s.662-.362 1.104-.362c1.153 0 1.73.775 1.73 2.324v5.495h3.429v-5.895c0-1.519-.36-2.671-1.081-3.456s-1.673-1.177-2.857-1.177c-1.328 0-2.363.569-3.104 1.708v.031h-.015l.015-.031v-1.462H13.53c.021.328.031 1.349.031 3.063s-.01 4.12-.031 7.219z"/></symbol><symbol id="icon-instagram" viewBox="0 0 32 32"><path fill="#358698" style="fill:var(--color1,#358698)" opacity=".23" d="M7.111 0h17.778A7.111 7.111 0 0 1 32 7.111v17.778A7.111 7.111 0 0 1 24.889 32H7.111A7.111 7.111 0 0 1 0 24.889V7.111A7.111 7.111 0 0 1 7.111 0z"/><path fill="#195c71" style="fill:var(--color2,#195c71)" d="M8 16c0-3.196 0-4.793.761-5.944.34-.514.78-.954 1.294-1.294 1.151-.761 2.749-.761 5.944-.761s4.794 0 5.944.761c.514.34.954.78 1.294 1.294.762 1.151.762 2.749.762 5.944s0 4.794-.762 5.944c-.34.514-.78.954-1.294 1.294-1.151.762-2.749.762-5.944.762s-4.793 0-5.944-.762a4.583 4.583 0 0 1-1.294-1.294C8 20.793 8 19.195 8 16zm12.141 0a4.142 4.142 0 1 1-8.284 0 4.142 4.142 0 0 1 8.284 0zm-4.142 2.74a2.74 2.74 0 1 0 0-5.48 2.74 2.74 0 0 0 0 5.48zm4.306-6.117a.973.973 0 1 0-.001-1.947.973.973 0 0 0 .001 1.947z"/></symbol><symbol id="icon-twitter" viewBox="0 0 32 32"><path fill="#358698" style="fill:var(--color1,#358698)" opacity=".23" d="M7.111 0h17.778A7.111 7.111 0 0 1 32 7.111v17.778A7.111 7.111 0 0 1 24.889 32H7.111A7.111 7.111 0 0 1 0 24.889V7.111A7.111 7.111 0 0 1 7.111 0z"/><path fill="#195c71" style="fill:var(--color2,#195c71)" d="M18.691 9.512v-.003h.75l.274.055c.183.036.349.082.498.14s.293.125.433.202c.139.077.266.155.379.235s.213.162.303.251c.088.089.227.112.414.069s.39-.103.606-.18c.216-.077.43-.163.642-.259s.341-.157.387-.183l.072-.043.003-.004.014-.007.015-.007.014-.007.014-.007.003-.004.004-.003.004-.003.003-.004.014-.004.014-.003-.003.022-.004.022-.014.043-.014.029-.007.022c-.005.014-.01.034-.014.058s-.05.12-.137.288-.195.339-.325.511c-.13.173-.246.304-.349.392s-.173.152-.206.187a.664.664 0 0 1-.123.101l-.072.048-.029.014-.003.004-.004.003-.004.003-.003.004-.029.014-.003.004-.004.003-.004.003-.003.004-.003.004-.004.003-.004.003-.003.004h.072l.404-.086c.269-.058.527-.127.772-.209l.454-.151.015-.007.029-.014.015-.007.029-.004.029-.003v.029l-.007.003-.007.004-.003.004-.004.003-.004.003-.003.004-.003.004-.004.003-.004.003-.003.004-.003.004-.004.003-.007.014-.007.014-.004.003-.183.245c-.12.161-.185.243-.195.245s-.023.017-.04.043c-.016.027-.118.134-.306.321s-.371.354-.551.5c-.181.147-.272.328-.274.542s-.014.454-.033.723c-.019.269-.055.559-.108.872a10.53 10.53 0 0 1-.649 2.212 9.043 9.043 0 0 1-.498 1.009c-.173.298-.332.55-.476.756s-.291.401-.44.584a8.57 8.57 0 0 1-.566.617c-.229.228-.354.352-.375.375s-.116.1-.283.236a9.545 9.545 0 0 1-.534.412c-.189.136-.364.25-.522.341s-.35.195-.574.313c-.223.118-.465.228-.724.329s-.534.195-.822.281c-.289.086-.567.154-.837.202s-.575.089-.916.122l-.512.05v.007h-.938v-.007l-.123-.007-.202-.014a19.813 19.813 0 0 1-.599-.079c-.346-.048-.618-.096-.815-.144s-.491-.139-.88-.274c-.39-.134-.723-.27-1-.408l-.519-.259a4.086 4.086 0 0 1-.234-.133l-.13-.079-.003-.004-.004-.003-.004-.003-.003-.004-.029-.014-.003-.004-.004-.003-.004-.003-.003-.004-.003-.004-.004-.003h-.007v-.029l.014.003.014.004.065.007c.043.005.161.012.353.022s.397.01.613 0a6.479 6.479 0 0 0 1.465-.238c.308-.082.591-.179.848-.291s.44-.198.548-.254c.108-.055.272-.157.493-.305l.332-.223.003-.004.004-.003.004-.003.003-.004.003-.004.004-.003.004-.003.003-.004.014-.004.014-.003.003-.014.004-.014.004-.003.003-.004-.115-.007-.224-.014a2.008 2.008 0 0 1-.339-.065 3.793 3.793 0 0 1-1.382-.711c-.074-.069-.17-.167-.289-.294s-.219-.259-.306-.393a3.51 3.51 0 0 1-.248-.465l-.12-.262-.014-.043-.004-.014-.003-.014.022.003.022.004.159.022c.106.014.272.019.498.014s.382-.014.469-.029a2.48 2.48 0 0 0 .159-.029l.029-.007.072-.014.003-.004.004-.003.004-.003.003-.004-.058-.014-.029-.007-.058-.014c-.019-.005-.053-.014-.101-.029s-.178-.067-.389-.159c-.212-.091-.38-.18-.505-.267s-.245-.181-.358-.284c-.113-.104-.236-.237-.371-.401s-.255-.353-.361-.569a3.468 3.468 0 0 1-.238-.619 3.372 3.372 0 0 1-.104-.598l-.026-.303.014.003.014.004.058.029.224.101c.149.067.334.125.555.173s.353.075.397.079l.065.007h.13l-.003-.004-.004-.003-.004-.003-.003-.004-.003-.004-.004-.003-.004-.003-.003-.004-.014-.007-.014-.007-.003-.004-.004-.003-.004-.003-.003-.004-.014-.007-.014-.007-.003-.004-.124-.092a1.709 1.709 0 0 1-.248-.235c-.087-.096-.173-.197-.26-.303s-.164-.219-.231-.339a4.171 4.171 0 0 1-.214-.458c-.074-.184-.13-.37-.169-.557s-.06-.372-.065-.555c-.005-.183 0-.339.014-.468s.043-.276.087-.439c.043-.163.106-.336.188-.519l.123-.274.007-.022.007-.022.004-.003.003-.004.003-.004.004-.003.004.003.003.004.003.004.004.003.004.003.003.004.003.004.004.003.014.029.004.003.003.004.195.216c.13.144.284.305.462.483s.277.27.296.277c.019.008.043.03.072.066s.125.121.289.255c.163.134.377.291.642.468s.558.353.88.526.669.329 1.039.468c.37.139.63.23.779.274s.404.098.765.166c.361.067.632.111.815.13s.308.03.375.033l.101.003-.003-.022-.004-.022-.029-.18c-.019-.12-.029-.288-.029-.504s.017-.415.05-.598a3.648 3.648 0 0 1 .349-1.006c.065-.112.151-.241.257-.385a3.158 3.158 0 0 1 .988-.858c.216-.12.416-.211.599-.274.183-.062.337-.103.462-.123s.188-.03.188-.033z"/></symbol><symbol id="icon-facebook" viewBox="0 0 32 32"><path fill="#358698" style="fill:var(--color1,#358698)" opacity=".23" d="M7.111 0h17.778A7.111 7.111 0 0 1 32 7.111v17.778A7.111 7.111 0 0 1 24.889 32H7.111A7.111 7.111 0 0 1 0 24.889V7.111A7.111 7.111 0 0 1 7.111 0z"/><path fill="#195c71" style="fill:var(--color2,#195c71)" d="M17.302 24v-7.298h2.573l.385-2.844h-2.958v-1.816c0-.823.24-1.385 1.481-1.385l1.582-.001V8.112A22.124 22.124 0 0 0 18.06 8c-2.281 0-3.842 1.325-3.842 3.76v2.098h-2.58v2.844h2.58V24h3.085z"/></symbol><symbol id="icon-logo-2" viewBox="0 0 55 32"><path fill="#fff" style="fill:var(--color3,#fff)" d="M3.339 22.941c.939 0 1.76.187 2.463.561s1.244.902 1.625 1.582c.389.672.584 1.45.584 2.335 0 .876-.195 1.654-.584 2.335a3.93 3.93 0 0 1-1.638 1.582c-.702.374-1.519.561-2.45.561H0V22.94h3.339zm-.14 7.069c.821 0 1.46-.225 1.917-.676s.686-1.089.686-1.914-.229-1.467-.686-1.927-1.096-.689-1.917-.689H2.171v5.206h1.028zM15.902 28.223c0 .204-.013.417-.038.638h-4.913c.034.442.174.783.419 1.021.254.23.563.345.927.345.542 0 .918-.23 1.13-.689h2.311a3.144 3.144 0 0 1-.648 1.263c-.305.374-.69.668-1.155.88s-.986.319-1.562.319c-.694 0-1.312-.149-1.854-.447s-.965-.723-1.27-1.276c-.305-.553-.457-1.199-.457-1.939s.148-1.386.444-1.939c.305-.553.728-.978 1.27-1.276s1.164-.447 1.866-.447c.686 0 1.295.145 1.828.434s.948.702 1.244 1.238c.305.536.457 1.161.457 1.876zm-2.222-.574c0-.374-.127-.672-.381-.893s-.571-.332-.952-.332c-.364 0-.673.106-.927.319-.245.213-.398.515-.457.906h2.717zM20.234 29.856l1.536-5.078h2.311l-2.514 7.12h-2.679l-2.514-7.12h2.323l1.536 5.078zM24.626 27.407c0-.885.19-1.671.571-2.36a4.044 4.044 0 0 1 1.587-1.62c.686-.391 1.46-.587 2.323-.587 1.058 0 1.964.281 2.717.842s1.257 1.327 1.511 2.297h-2.387a1.928 1.928 0 0 0-.762-.855 2.082 2.082 0 0 0-1.105-.294c-.669 0-1.21.234-1.625.702s-.622 1.093-.622 1.876.207 1.408.622 1.876c.415.468.956.702 1.625.702.415 0 .783-.098 1.105-.294.33-.196.584-.481.762-.855h2.387c-.254.97-.758 1.735-1.511 2.297-.753.553-1.659.829-2.717.829-.863 0-1.638-.191-2.323-.574-.677-.391-1.206-.931-1.587-1.62s-.571-1.476-.571-2.36zM37.89 32c-.694 0-1.32-.149-1.879-.447a3.32 3.32 0 0 1-1.308-1.276c-.313-.553-.47-1.199-.47-1.939 0-.732.161-1.374.482-1.927.322-.561.762-.991 1.32-1.289s1.185-.447 1.879-.447 1.32.149 1.879.447.999.727 1.32 1.289c.322.553.482 1.195.482 1.927s-.165 1.378-.495 1.939a3.276 3.276 0 0 1-1.333 1.276c-.559.298-1.185.447-1.879.447zm0-1.888c.415 0 .766-.153 1.054-.459.296-.306.444-.744.444-1.314s-.144-1.008-.432-1.314a1.351 1.351 0 0 0-1.041-.459c-.423 0-.774.153-1.054.459-.279.298-.419.736-.419 1.314 0 .57.135 1.008.406 1.314.279.306.626.459 1.041.459zM44.92 25.965c.254-.391.571-.698.952-.919a2.41 2.41 0 0 1 1.27-.345v2.309h-.597c-.542 0-.948.119-1.219.357-.271.23-.406.638-.406 1.225v3.305h-2.171v-7.12h2.171v1.187zM54.857 28.223c0 .204-.013.417-.038.638h-4.913c.034.442.174.783.419 1.021.254.23.563.345.927.345.542 0 .918-.23 1.13-.689h2.311a3.144 3.144 0 0 1-.648 1.263c-.305.374-.69.668-1.155.88s-.986.319-1.562.319c-.694 0-1.312-.149-1.854-.447s-.965-.723-1.27-1.276c-.305-.553-.457-1.199-.457-1.939s.148-1.386.444-1.939c.305-.553.728-.978 1.27-1.276s1.164-.447 1.866-.447c.686 0 1.295.145 1.828.434s.948.702 1.244 1.238c.305.536.457 1.161.457 1.876zm-2.222-.574c0-.374-.127-.672-.381-.893s-.571-.332-.952-.332c-.364 0-.673.106-.927.319-.245.213-.398.515-.457.906h2.717zM26.892 5.936l3.577 3.595-3.577 3.595-3.577-3.595 3.577-3.595z"/><path fill="#fff" style="fill:var(--color3,#fff)" d="m15.678 9.493 9.323-9.37V4.21l-5.257 5.283 5.257 5.283v4.087l-9.323-9.37zM28.671 18.986l9.446-9.493L28.671 0v4.087l5.379 5.406-5.379 5.406v4.087z"/></symbol><symbol id="icon-logo-1" viewBox="0 0 32 32"><path d="m15.992 11.044 5.101 5.023-5.101 5.023-5.101-5.023 5.101-5.023z"/><path d="M0 16.014 13.296 2.921v5.711l-7.497 7.382 7.497 7.382v5.711L0 16.014zM18.53 29.279 32 16.014 18.53 2.749V8.46l7.671 7.554-7.671 7.554v5.711z"/></symbol><symbol id="icon-phone" viewBox="0 0 32 32"><path d="M23.906 19.766c-2.071-.188-3.2 2.635-4.706 3.388-2.447 1.318-6.965-3.388-6.965-3.388s-4.706-4.518-3.576-6.965c.941-1.506 3.765-2.635 3.576-4.706-.188-1.882-4.329-8.659-6.4-6.776C1.317 5.46.941 7.154.941 10.543c-.188 5.835 7.341 13.176 7.341 13.176.753.753 7.341 7.529 13.176 7.341 3.388 0 5.082-.376 9.224-4.894 1.882-2.071-4.706-6.212-6.776-6.4z"/></symbol><symbol id="icon-telegram" viewBox="0 0 32 32"><path d="M21.266 12.534c.707-.707 1.408-2.355-1.536-.353a504.407 504.407 0 0 1-8.306 5.596 3.45 3.45 0 0 1-2.71.059c-1.766-.53-3.828-1.236-3.828-1.236s-1.408-.884 1.002-1.827c0 0 10.19-4.182 13.724-5.655 1.354-.589 5.948-2.473 5.948-2.473s2.121-.826 1.944 1.178c-.059.824-.53 3.712-1.001 6.833-.708 4.417-1.473 9.248-1.473 9.248s-.118 1.354-1.119 1.59a4.845 4.845 0 0 1-2.944-1.06c-.236-.177-4.417-2.828-5.949-4.123a1.116 1.116 0 0 1 .059-1.885 217.775 217.775 0 0 0 6.189-5.891z"/></symbol><symbol id="icon-design" viewBox="0 0 32 32"><path fill="#015366" style="fill:var(--color4,#015366)" d="M13.517 3c-1.215 0-2.23.874-2.454 2.025H5.517v6.061l-.561-.56-.707.706 1.734 1.735a.501.501 0 0 0-.32.144l-3.534 3.535a.508.508 0 0 0-.147.354.506.506 0 0 0 .147.354l3.535 3.537a.499.499 0 0 0 .342.146l-1.757 1.756.707.707.56-.56V27l5.551.002A2.504 2.504 0 0 0 13.517 29h5a2.51 2.51 0 0 0 2.449-2h5.05v-5.56l.561.56.707-.707-1.767-1.768-1.768 1.768.707.707.56-.56V26h-4.05a2.508 2.508 0 0 0-2.45-2h-5a2.506 2.506 0 0 0-2.449 2h-4.55v-3.061l.56.561.707-.707-1.756-1.756a.499.499 0 0 0 .342-.146l3.535-3.537a.492.492 0 0 0 .147-.354.506.506 0 0 0-.147-.354L6.37 13.111a.501.501 0 0 0-.32-.144l1.734-1.735-.707-.707-.56.56V6.026h4.558A2.505 2.505 0 0 0 13.517 8h5c1.195 0 2.198-.85 2.441-1.975h4.059v6.561l-.561-.56-.707.706 1.768 1.768 1.767-1.768-.707-.707-.56.56V5.026h-5.048A2.505 2.505 0 0 0 18.517 3h-5zm12 11.5h-4a.498.498 0 0 0-.5.5v4.488l.5.012h8a.498.498 0 0 0 .5-.5v-4a.498.498 0 0 0-.5-.5h-4zm-12-10.5h5c.84 0 1.5.66 1.5 1.5s-.66 1.5-1.5 1.5h-5c-.84 0-1.5-.66-1.5-1.5s.66-1.5 1.5-1.5zm-7.5 10.172L8.845 17l-2.828 2.83L3.188 17l2.829-2.828zm16 1.328h7v3h-7v-3zm-8.5 9.5h5c.84 0 1.5.66 1.5 1.5s-.66 1.5-1.5 1.5h-5c-.84 0-1.5-.66-1.5-1.5s.66-1.5 1.5-1.5z"/></symbol><symbol id="icon-development" viewBox="0 0 32 32"><path fill="#015366" style="fill:var(--color4,#015366)" d="M29.25 16.46h-4.91c-.27 0-.485-.215-.485-.485s.215-.485.485-.485h4.425V5.97h-12.82c-.27 0-.485-.215-.485-.485S15.675 5 15.945 5H29.25c.27 0 .485.215.485.485v10.49a.485.485 0 0 1-.485.485z"/><path fill="#015366" style="fill:var(--color4,#015366)" d="M24.345 18.33a.477.477 0 0 1-.3-.105l-2.38-1.87a.484.484 0 0 1 0-.76l2.38-1.87a.484.484 0 0 1 .785.38v3.745a.48.48 0 0 1-.485.48zm-1.6-2.355 1.11.875V15.1l-1.11.875zM12.68 27H2.75a.482.482 0 0 1-.485-.485v-10.49c0-.27.215-.485.485-.485h6.1c.27 0 .485.215.485.485s-.215.485-.485.485H3.235v9.52h9.445a.485.485 0 0 1 0 .97z"/><path fill="#015366" style="fill:var(--color4,#015366)" d="M12.68 28.875a.488.488 0 0 1-.485-.485v-3.745a.484.484 0 0 1 .785-.38l2.38 1.87a.484.484 0 0 1 0 .76l-2.38 1.87a.464.464 0 0 1-.3.11zm.485-3.23v1.745l1.11-.875-1.11-.87z"/><path fill="#033540" style="fill:var(--color5,#033540)" d="M23.36 32h-1.52a.482.482 0 0 1-.485-.485v-.65a4.384 4.384 0 0 1-.95-.395l-.46.46a.483.483 0 0 1-.685 0l-1.075-1.075a.493.493 0 0 1-.005-.69l.46-.46c-.17-.3-.3-.62-.395-.95h-.65a.482.482 0 0 1-.485-.485v-1.52c0-.27.215-.485.485-.485h.65c.095-.33.225-.65.39-.95l-.46-.46a.483.483 0 0 1 0-.685l1.075-1.075c.19-.19.495-.19.685 0l.46.46c.3-.17.62-.3.95-.395v-.65c0-.27.215-.485.485-.485h1.52c.27 0 .485.215.485.485v.65c.33.095.645.225.95.395l.46-.46a.497.497 0 0 1 .69 0l1.075 1.075c.19.19.19.495 0 .685l-.455.455c.17.3.3.62.395.95h.65c.27 0 .485.215.485.485v1.52c0 .27-.215.485-.485.485h-.65c-.095.33-.225.65-.395.95l.46.46c.19.19.19.495 0 .685L25.94 30.92a.483.483 0 0 1-.685 0l-.46-.46c-.3.17-.62.3-.95.395v.65c0 .28-.22.495-.485.495zm-1.035-.97h.55v-.55c0-.235.165-.435.395-.475.475-.09.92-.275 1.32-.55.19-.13.45-.105.615.06l.39.39.39-.39-.385-.385a.485.485 0 0 1-.06-.615c.275-.41.46-.855.55-1.325a.486.486 0 0 1 .475-.395h.545v-.55h-.545a.478.478 0 0 1-.475-.395 3.58 3.58 0 0 0-.545-1.325.485.485 0 0 1 .06-.615l.385-.385-.39-.39-.39.39a.485.485 0 0 1-.615.06 3.43 3.43 0 0 0-1.32-.545.486.486 0 0 1-.395-.475v-.55h-.55v.55a.478.478 0 0 1-.395.475c-.475.09-.92.27-1.32.545-.19.13-.45.11-.615-.055l-.39-.39-.39.39.385.385c.165.165.19.42.06.615-.275.405-.455.85-.545 1.325a.486.486 0 0 1-.475.395h-.55v.55h.55c.235 0 .435.165.475.395.09.475.27.915.545 1.32.13.19.105.45-.06.615l-.39.39.39.39.39-.39a.479.479 0 0 1 .615-.055c.4.275.845.46 1.32.545.23.045.395.245.395.475v.545z"/><path fill="#033540" style="fill:var(--color5,#033540)" d="M22.595 29.605c-1.705 0-3.09-1.385-3.09-3.09s1.385-3.09 3.09-3.09c1.705 0 3.09 1.385 3.09 3.09s-1.385 3.09-3.09 3.09zm0-5.21a2.121 2.121 0 0 0 0 4.24c1.17 0 2.12-.95 2.12-2.12 0-1.165-.95-2.12-2.12-2.12zM15.82 21.51H14.3a.482.482 0 0 1-.485-.485v-.65a4.384 4.384 0 0 1-.95-.395l-.46.46a.483.483 0 0 1-.685 0l-1.075-1.075a.48.48 0 0 1-.005-.685l.46-.46c-.17-.3-.3-.62-.395-.95h-.65a.482.482 0 0 1-.485-.485v-1.52c0-.27.215-.485.485-.485h.65c.095-.33.225-.65.39-.95l-.46-.46a.483.483 0 0 1 0-.685l1.075-1.075c.19-.19.495-.19.685 0l.46.46c.3-.17.615-.3.95-.395v-.65c0-.27.215-.485.485-.485h1.52c.27 0 .485.215.485.485v.65c.33.095.645.225.95.395l.46-.46a.488.488 0 0 1 .69.005l1.075 1.075c.19.19.19.495 0 .685l-.455.46c.17.3.3.62.395.95h.65c.27 0 .485.215.485.485v1.52c0 .27-.215.485-.485.485h-.65a4.49 4.49 0 0 1-.395.95l.46.46c.19.19.19.495 0 .685L18.4 20.445a.502.502 0 0 1-.685 0l-.46-.46c-.3.17-.62.3-.95.395v.65c0 .26-.215.48-.485.48zm-1.035-.97h.55v-.55c0-.235.165-.435.395-.475.475-.09.92-.275 1.32-.545a.48.48 0 0 1 .615.06l.39.39.39-.39-.385-.385a.485.485 0 0 1-.06-.615c.275-.41.46-.855.55-1.325a.486.486 0 0 1 .475-.395h.545v-.55h-.545a.478.478 0 0 1-.475-.395 3.58 3.58 0 0 0-.545-1.325.485.485 0 0 1 .06-.615l.385-.385-.39-.39-.39.39a.485.485 0 0 1-.615.06 3.485 3.485 0 0 0-1.32-.55.486.486 0 0 1-.395-.475v-.55h-.55v.55a.478.478 0 0 1-.395.475c-.475.09-.92.275-1.32.545-.19.13-.45.11-.615-.055l-.39-.39-.39.39.385.385c.165.165.19.42.06.615-.275.405-.455.85-.545 1.325a.486.486 0 0 1-.475.395h-.55v.55h.55c.235 0 .435.165.475.395.09.475.27.915.545 1.32.13.195.11.45-.055.615l-.39.39.39.39.39-.39a.479.479 0 0 1 .615-.055c.4.275.84.455 1.32.545.23.045.395.245.395.475v.545h-.005z"/><path fill="#033540" style="fill:var(--color5,#033540)" d="M15.06 19.115c-1.705 0-3.09-1.385-3.09-3.09s1.385-3.09 3.09-3.09c1.705 0 3.09 1.385 3.09 3.09s-1.39 3.09-3.09 3.09zm0-5.21a2.121 2.121 0 0 0 0 4.24c1.17 0 2.12-.95 2.12-2.12s-.955-2.12-2.12-2.12zM9.63 10.965H8.11a.482.482 0 0 1-.485-.485v-.65a4.384 4.384 0 0 1-.95-.395l-.46.46a.483.483 0 0 1-.685 0L4.455 8.82a.493.493 0 0 1-.005-.69l.46-.46c-.17-.3-.3-.62-.395-.95h-.65a.482.482 0 0 1-.485-.485v-1.51c0-.27.215-.485.485-.485h.65c.095-.33.225-.65.39-.95l-.45-.46a.483.483 0 0 1 0-.685L5.53 1.07c.19-.19.495-.19.685 0l.46.46c.3-.17.62-.3.95-.395v-.65c0-.27.215-.485.485-.485h1.52c.27 0 .485.215.485.485v.65c.33.095.645.225.95.395l.46-.46a.488.488 0 0 1 .69.005L13.29 2.15c.19.19.19.495 0 .685l-.455.46c.17.3.3.62.395.95h.65c.27 0 .485.215.485.485v1.52c0 .27-.215.485-.485.485h-.65c-.095.33-.225.65-.395.95l.46.46c.19.19.19.495 0 .685L12.22 9.905a.502.502 0 0 1-.685 0l-.46-.46c-.3.17-.62.3-.95.395v.65a.496.496 0 0 1-.495.475zm-1.035-.97h.55v-.55c0-.235.165-.435.395-.475.475-.09.92-.275 1.32-.55.19-.13.45-.105.615.06l.39.39.39-.39-.385-.385a.485.485 0 0 1-.06-.615c.275-.41.46-.855.55-1.325a.486.486 0 0 1 .475-.395h.545v-.55h-.545a.478.478 0 0 1-.475-.395 3.58 3.58 0 0 0-.545-1.325.485.485 0 0 1 .06-.615l.385-.385-.39-.39-.39.39a.485.485 0 0 1-.615.06A3.518 3.518 0 0 0 9.545 2a.486.486 0 0 1-.395-.475v-.55H8.6v.55A.478.478 0 0 1 8.205 2c-.475.09-.92.275-1.32.545-.19.13-.45.11-.615-.055l-.39-.39-.39.39.385.385c.165.165.19.42.06.615-.275.405-.455.85-.545 1.325a.486.486 0 0 1-.475.395h-.55v.55h.55c.235 0 .435.165.475.395.09.475.27.915.545 1.32.13.195.105.45-.06.615l-.39.39.39.39.39-.39a.479.479 0 0 1 .615-.055c.4.275.845.46 1.32.545.23.045.395.245.395.475v.55z"/><path fill="#033540" style="fill:var(--color5,#033540)" d="M8.87 8.575c-1.705 0-3.09-1.385-3.09-3.09s1.385-3.09 3.09-3.09a3.092 3.092 0 0 1 3.09 3.09c0 1.7-1.385 3.09-3.09 3.09zm0-5.21a2.121 2.121 0 0 0 0 4.24 2.121 2.121 0 0 0 0-4.24z"/></symbol><symbol id="icon-maintenance" viewBox="0 0 32 32"><path fill="#033540" style="fill:var(--color5,#033540)" d="M20.9 21.7c-.2-.2-.5-.2-.7 0s-.2.5 0 .7l4.9 5c.1.1.2.1.4.1.1 0 .3 0 .4-.1.2-.2.2-.5 0-.7l-5-5zM21.6 21l4.9 5c.1.1.2.1.4.1.1 0 .3 0 .4-.1.2-.2.2-.5 0-.7l-4.9-5c-.2-.2-.5-.2-.7 0-.3.2-.3.5-.1.7z"/><path fill="#015366" style="fill:var(--color4,#015366)" d="M25.5 13.2c.2.1.4 0 .5-.1l3.7-3.7c.1-.1.1-.2.1-.4s-.1-.3-.1-.4l-1.4-1.4c-.2-.2-.5-.2-.7 0L25 9.9l-2.2-.6-.7-2.3 2.6-2.6c.2-.2.2-.5 0-.7l-1.4-1.4c-.2-.2-.5-.2-.7 0L18.9 6c-.1.1-.2.3-.1.5l.8 3-4 4-7.1-7.1c0-.2.1-.4.1-.6 0-.4-.2-.8-.4-1.1L6 2.6c-.1-.1-.2-.2-.3-.2s-.3.1-.4.2L2.5 5.4c-.1.1-.1.2-.1.4s0 .2.1.3l2.1 2.1c.3.3.7.4 1.1.4.2 0 .4-.1.6-.2l7.2 7.2-3.9 3.9-3-.8c-.2 0-.4 0-.5.1l-3.7 3.7c-.1.1-.1.2-.1.4s.1.3.1.4l1.4 1.4c.2.2.5.2.7 0L7 22.1l2.2.6.7 2.3-2.6 2.6c-.2.2-.2.5 0 .7l1.4 1.4c.1.1.2.1.4.1s.3 0 .4-.1l3.7-3.7c.1-.1.2-.3.1-.5l-.8-3L15 20l1 1c.1.1.2.1.4.1s.3 0 .4-.1c.2-.2.5-.2.7 0 .1.1.1.2.1.4 0 .1-.1.3-.1.3s-.1.1-.1.2v.4c0 .1.1.1.1.2l6.4 6.4c.5.5 1.1.7 1.8.7s1.3-.2 1.8-.7l1.4-1.4c.5-.5.7-1.1.7-1.8s-.3-1.3-.7-1.8l-6.4-6.4c-.2-.2-.5-.2-.7 0s-.5.2-.7 0c-.2-.2-.2-.5 0-.7.1-.1.1-.2.1-.4s0-.3-.1-.4l-1-1 2.6-2.6 2.8.8zm2.9 12.4c0 .4-.2.8-.4 1.1L26.5 28c-.6.6-1.5.6-2.1 0l-6-6 3.6-3.6 6 6c.2.4.4.8.4 1.2zM5.3 7.5 3.6 5.8l2.1-2.1 1.8 1.8c.1.1.1.2.1.4 0 .1-.1.3-.1.4L6 7.5c-.2.2-.5.2-.7 0zm2.5-.3 9.2 9.2-.7.7-9.2-9.2.7-.7zm3.5 15.2.8 3L9 28.6l-.7-.7 2.4-2.4c.1-.1.2-.3.1-.5l-.7-2.8c0-.2-.2-.3-.4-.4L7 21.1c-.2 0-.4 0-.5.1l-2.4 2.4-.7-.6 3.2-3.2 3 .8c.2 0 .4 0 .5-.1l4.1-4.1 1.4 1.4-1.1 1.1s0 .1-.1.1l-3 3c-.1.1-.1.3-.1.4zm8.9-4.3c.1.1.3.2.4.3l-2.2 2.2c-.1-.2-.2-.3-.3-.4s-.3-.2-.4-.3l2.2-2.2c.1.2.2.3.3.4zm-.4-1.7-3.5 3.5-.7-.7 3.5-3.5.7.7zm2.1-4.9-3.1 3.1s-.1 0-.1.1l-1.1 1.1-1.4-1.4 4.2-4.2c.1-.1.2-.3.1-.5l-.8-3L23 3.4l.7.7-2.4 2.4c-.1.1-.2.3-.1.5l.7 2.8c0 .2.2.3.4.4l2.8.7c.2 0 .4 0 .5-.1L28 8.4l.6.6-3.2 3.2-3-.8c-.1-.1-.3-.1-.5.1z"/></symbol><symbol id="icon-logo" viewBox="0 0 32 32"><path fill="#fff" style="fill:var(--color3,#fff)" d="M1.948 20.049c.548 0 1.027.109 1.437.327s.726.526.948.923c.227.392.341.846.341 1.362 0 .511-.114.965-.341 1.362a2.292 2.292 0 0 1-.955.923c-.41.218-.886.327-1.429.327H.001v-5.225h1.948zm-.082 4.123c.479 0 .852-.131 1.118-.394s.4-.635.4-1.116c0-.481-.133-.856-.4-1.124s-.639-.402-1.118-.402h-.6v3.037h.6zM9.276 23.13c0 .119-.007.243-.022.372H6.388c.02.258.101.456.244.595a.776.776 0 0 0 .541.201c.316 0 .536-.134.659-.402H9.18a1.837 1.837 0 0 1-.378.737c-.178.218-.402.39-.674.514s-.575.186-.911.186c-.405 0-.765-.087-1.081-.261s-.563-.422-.741-.744c-.178-.323-.267-.7-.267-1.131s.086-.809.259-1.131c.178-.323.425-.571.741-.744s.679-.261 1.089-.261c.4 0 .755.084 1.066.253s.553.409.726.722c.178.313.267.677.267 1.094zm-1.296-.335c0-.218-.074-.392-.222-.521s-.333-.194-.555-.194a.815.815 0 0 0-.541.186c-.143.124-.232.3-.267.528H7.98zM11.803 24.083l.896-2.962h1.348l-1.466 4.153h-1.563l-1.466-4.153h1.355l.896 2.962zM14.365 22.654a2.8 2.8 0 0 1 .333-1.377 2.36 2.36 0 0 1 .926-.945c.4-.228.852-.342 1.355-.342.617 0 1.145.164 1.585.491s.733.774.881 1.34h-1.392a1.127 1.127 0 0 0-.444-.499 1.216 1.216 0 0 0-.644-.171c-.39 0-.706.136-.948.409s-.363.638-.363 1.094.121.821.363 1.094c.242.273.558.409.948.409.242 0 .457-.057.644-.171a1.11 1.11 0 0 0 .444-.499h1.392c-.148.566-.442 1.012-.881 1.34-.439.323-.968.484-1.585.484-.504 0-.955-.112-1.355-.335-.395-.228-.704-.543-.926-.945s-.333-.861-.333-1.377zM22.102 25.333a2.29 2.29 0 0 1-1.096-.261 1.941 1.941 0 0 1-.763-.744c-.183-.323-.274-.7-.274-1.131 0-.427.094-.801.281-1.124.188-.328.444-.578.77-.752s.691-.261 1.096-.261c.405 0 .77.087 1.096.261s.583.424.77.752c.188.323.281.697.281 1.124s-.096.804-.289 1.131a1.903 1.903 0 0 1-.778.744 2.29 2.29 0 0 1-1.096.261zm0-1.101a.81.81 0 0 0 .615-.268c.173-.179.259-.434.259-.767s-.084-.588-.252-.767a.787.787 0 0 0-.607-.268.796.796 0 0 0-.615.268c-.163.174-.244.429-.244.767 0 .332.079.588.237.767a.787.787 0 0 0 .607.268zM26.203 21.813c.148-.228.333-.407.555-.536.222-.134.469-.201.741-.201v1.347h-.348c-.316 0-.553.07-.711.208-.158.134-.237.372-.237.715v1.928h-1.266v-4.153h1.266v.692zM32 23.13c0 .119-.007.243-.022.372h-2.866c.02.258.101.456.244.595a.776.776 0 0 0 .541.201c.316 0 .536-.134.659-.402h1.348a1.837 1.837 0 0 1-.378.737c-.178.218-.402.39-.674.514s-.575.186-.911.186c-.405 0-.765-.087-1.081-.261s-.563-.422-.741-.744c-.178-.323-.267-.7-.267-1.131s.086-.809.259-1.131c.178-.323.425-.571.741-.744s.679-.261 1.089-.261c.4 0 .755.084 1.066.253s.553.409.726.722c.178.313.267.677.267 1.094zm-1.296-.335c0-.218-.074-.392-.222-.521s-.333-.194-.555-.194a.817.817 0 0 0-.541.186c-.143.124-.232.3-.267.528h1.585zM15.687 10.13l2.086 2.097-2.086 2.097-2.086-2.097 2.087-2.097z"/><path fill="#fff" style="fill:var(--color3,#fff)" d="m9.145 12.204 5.439-5.466v2.384l-3.066 3.082 3.066 3.082v2.384l-5.439-5.466zM16.725 17.742l5.51-5.538-5.51-5.538V9.05l3.138 3.153-3.138 3.154v2.384z"/></symbol></defs></svg>