<svg aria-hidden="true" style="position: absolute; width: 0; height: 0; overflow: hidden;" version="1.1" xmlns="http://www.w3.org/2000/svg" xmlns:xlink="http://www.w3.org/1999/xlink">
<defs>
<symbol id="icon-youTube" viewBox="0 0 32 32">
<path fill="#358698" style="fill: var(--color1, #358698)" opacity="0.23" d="M7.111 0h17.778c3.927 0 7.111 3.184 7.111 7.111v17.778c0 3.927-3.184 7.111-7.111 7.111h-17.778c-3.927 0-7.111-3.184-7.111-7.111v-17.778c0-3.927 3.184-7.111 7.111-7.111z"></path>
<path fill="#195c71" style="fill: var(--color2, #195c71)" d="M16.39 22.204l-3.611-0.067c-1.169-0.024-2.341 0.023-3.487-0.22-1.744-0.364-1.867-2.149-1.996-3.646-0.178-2.105-0.109-4.248 0.227-6.335 0.19-1.171 0.936-1.87 2.091-1.946 3.898-0.276 7.822-0.243 11.712-0.114 0.411 0.012 0.824 0.076 1.229 0.15 1.999 0.358 2.048 2.381 2.178 4.083 0.129 1.72 0.075 3.449-0.172 5.158-0.198 1.415-0.577 2.601-2.178 2.715-2.005 0.15-3.964 0.27-5.975 0.232 0-0.009-0.011-0.009-0.017-0.009zM14.267 18.623c1.511-0.887 2.993-1.758 4.496-2.639-1.514-0.887-2.993-1.758-4.496-2.639v5.278z"></path>
</symbol>
<symbol id="icon-linkedIn" viewBox="0 0 32 32">
<path fill="#358698" style="fill: var(--color1, #358698)" opacity="0.23" d="M7.111 0h17.778c3.927 0 7.111 3.184 7.111 7.111v17.778c0 3.927-3.184 7.111-7.111 7.111h-17.778c-3.927 0-7.111-3.184-7.111-7.111v-17.778c0-3.927 3.184-7.111 7.111-7.111z"></path>
<path fill="#195c71" style="fill: var(--color2, #195c71)" d="M8 10.151c0-0.513 0.18-0.936 0.541-1.27s0.829-0.5 1.405-0.5c0.566 0 1.024 0.164 1.374 0.493 0.36 0.339 0.541 0.78 0.541 1.324 0 0.493-0.175 0.903-0.525 1.231-0.36 0.339-0.834 0.508-1.421 0.508h-0.015c-0.566 0-1.024-0.169-1.375-0.508s-0.525-0.764-0.525-1.277zM8.201 23.619v-10.282h3.429v10.282h-3.429zM13.529 23.619h3.429v-5.741c0-0.359 0.041-0.636 0.124-0.831 0.144-0.349 0.363-0.644 0.656-0.885s0.662-0.362 1.104-0.362c1.153 0 1.73 0.775 1.73 2.324v5.495h3.429v-5.895c0-1.519-0.36-2.671-1.081-3.456s-1.673-1.177-2.857-1.177c-1.328 0-2.363 0.569-3.104 1.708v0.031h-0.015l0.015-0.031v-1.462h-3.429c0.021 0.328 0.031 1.349 0.031 3.063s-0.010 4.12-0.031 7.219z"></path>
</symbol>
<symbol id="icon-instagram" viewBox="0 0 32 32">
<path fill="#358698" style="fill: var(--color1, #358698)" opacity="0.23" d="M7.111 0h17.778c3.927 0 7.111 3.184 7.111 7.111v17.778c0 3.927-3.184 7.111-7.111 7.111h-17.778c-3.927 0-7.111-3.184-7.111-7.111v-17.778c0-3.927 3.184-7.111 7.111-7.111z"></path>
<path fill="#195c71" style="fill: var(--color2, #195c71)" d="M8 16c0-3.196 0-4.793 0.761-5.944 0.34-0.514 0.78-0.954 1.294-1.294 1.151-0.761 2.749-0.761 5.944-0.761s4.794 0 5.944 0.761c0.514 0.34 0.954 0.78 1.294 1.294 0.762 1.151 0.762 2.749 0.762 5.944s0 4.794-0.762 5.944c-0.34 0.514-0.78 0.954-1.294 1.294-1.151 0.762-2.749 0.762-5.944 0.762s-4.793 0-5.944-0.762c-0.514-0.34-0.954-0.78-1.294-1.294-0.761-1.151-0.761-2.749-0.761-5.944zM20.141 16c0 2.287-1.854 4.142-4.142 4.142s-4.142-1.854-4.142-4.142c0-2.287 1.854-4.142 4.142-4.142s4.142 1.854 4.142 4.142zM15.999 18.74c1.514 0 2.74-1.227 2.74-2.74s-1.227-2.74-2.74-2.74c-1.514 0-2.74 1.227-2.74 2.74s1.227 2.74 2.74 2.74zM20.305 12.623c0.537 0 0.973-0.436 0.973-0.973s-0.436-0.973-0.973-0.973c-0.538 0-0.973 0.436-0.973 0.973s0.436 0.973 0.973 0.973z"></path>
</symbol>
<symbol id="icon-twitter" viewBox="0 0 32 32">
<path fill="#358698" style="fill: var(--color1, #358698)" opacity="0.23" d="M7.111 0h17.778c3.927 0 7.111 3.184 7.111 7.111v17.778c0 3.927-3.184 7.111-7.111 7.111h-17.778c-3.927 0-7.111-3.184-7.111-7.111v-17.778c0-3.927 3.184-7.111 7.111-7.111z"></path>
<path fill="#195c71" style="fill: var(--color2, #195c71)" d="M18.691 9.512v-0.003h0.75l0.274 0.055c0.183 0.036 0.349 0.082 0.498 0.14s0.293 0.125 0.433 0.202c0.139 0.077 0.266 0.155 0.379 0.235s0.213 0.162 0.303 0.251c0.088 0.089 0.227 0.112 0.414 0.069s0.39-0.103 0.606-0.18c0.216-0.077 0.43-0.163 0.642-0.259s0.341-0.157 0.387-0.183c0.045-0.027 0.069-0.041 0.072-0.043l0.003-0.004 0.014-0.007 0.015-0.007 0.014-0.007 0.014-0.007 0.003-0.004 0.004-0.003 0.004-0.003 0.003-0.004 0.014-0.004 0.014-0.003-0.003 0.022-0.004 0.022-0.014 0.043-0.014 0.029-0.007 0.022c-0.005 0.014-0.010 0.034-0.014 0.058s-0.050 0.12-0.137 0.288-0.195 0.339-0.325 0.511c-0.13 0.173-0.246 0.304-0.349 0.392s-0.173 0.152-0.206 0.187c-0.034 0.036-0.075 0.070-0.123 0.101l-0.072 0.048-0.029 0.014-0.003 0.004-0.004 0.003-0.004 0.003-0.003 0.004-0.029 0.014-0.003 0.004-0.004 0.003-0.004 0.003-0.003 0.004-0.003 0.004-0.004 0.003-0.004 0.003-0.003 0.004h0.072l0.404-0.086c0.269-0.058 0.527-0.127 0.772-0.209l0.454-0.151 0.015-0.007 0.029-0.014 0.015-0.007 0.029-0.004 0.029-0.003v0.029l-0.007 0.003-0.007 0.004-0.003 0.004-0.004 0.003-0.004 0.003-0.003 0.004-0.003 0.004-0.004 0.003-0.004 0.003-0.003 0.004-0.003 0.004-0.004 0.003-0.007 0.014-0.007 0.014-0.004 0.003c-0.002 0.003-0.063 0.085-0.183 0.245-0.12 0.161-0.185 0.243-0.195 0.245s-0.023 0.017-0.040 0.043c-0.016 0.027-0.118 0.134-0.306 0.321s-0.371 0.354-0.551 0.5c-0.181 0.147-0.272 0.328-0.274 0.542s-0.014 0.454-0.033 0.723c-0.019 0.269-0.055 0.559-0.108 0.872s-0.135 0.665-0.245 1.059c-0.111 0.394-0.245 0.778-0.404 1.153s-0.325 0.711-0.498 1.009c-0.173 0.298-0.332 0.55-0.476 0.756s-0.291 0.401-0.44 0.584c-0.149 0.183-0.338 0.388-0.566 0.617-0.229 0.228-0.354 0.352-0.375 0.375s-0.116 0.1-0.283 0.236c-0.165 0.137-0.343 0.275-0.534 0.412-0.189 0.136-0.364 0.25-0.522 0.341s-0.35 0.195-0.574 0.313c-0.223 0.118-0.465 0.228-0.724 0.329s-0.534 0.195-0.822 0.281c-0.289 0.086-0.567 0.154-0.837 0.202s-0.575 0.089-0.916 0.122l-0.512 0.050v0.007h-0.938v-0.007l-0.123-0.007c-0.082-0.005-0.149-0.010-0.202-0.014s-0.253-0.031-0.599-0.079c-0.346-0.048-0.618-0.096-0.815-0.144s-0.491-0.139-0.88-0.274c-0.39-0.134-0.723-0.27-1-0.408s-0.449-0.223-0.519-0.259c-0.069-0.036-0.147-0.080-0.234-0.133l-0.13-0.079-0.003-0.004-0.004-0.003-0.004-0.003-0.003-0.004-0.029-0.014-0.003-0.004-0.004-0.003-0.004-0.003-0.003-0.004-0.003-0.004-0.004-0.003h-0.007v-0.029l0.014 0.003 0.014 0.004 0.065 0.007c0.043 0.005 0.161 0.012 0.353 0.022s0.397 0.010 0.613 0c0.216-0.010 0.438-0.031 0.664-0.065s0.493-0.091 0.801-0.173c0.308-0.082 0.591-0.179 0.848-0.291s0.44-0.198 0.548-0.254c0.108-0.055 0.272-0.157 0.493-0.305l0.332-0.223 0.003-0.004 0.004-0.003 0.004-0.003 0.003-0.004 0.003-0.004 0.004-0.003 0.004-0.003 0.003-0.004 0.014-0.004 0.014-0.003 0.003-0.014 0.004-0.014 0.004-0.003 0.003-0.004-0.115-0.007c-0.077-0.005-0.151-0.010-0.224-0.014s-0.185-0.026-0.339-0.065c-0.154-0.038-0.32-0.096-0.498-0.173s-0.351-0.168-0.519-0.274c-0.168-0.106-0.29-0.194-0.365-0.264-0.074-0.069-0.17-0.167-0.289-0.294s-0.219-0.259-0.306-0.393c-0.087-0.134-0.169-0.29-0.248-0.465l-0.12-0.262-0.014-0.043-0.004-0.014-0.003-0.014 0.022 0.003 0.022 0.004 0.159 0.022c0.106 0.014 0.272 0.019 0.498 0.014s0.382-0.014 0.469-0.029c0.087-0.014 0.139-0.024 0.159-0.029l0.029-0.007 0.072-0.014 0.003-0.004 0.004-0.003 0.004-0.003 0.003-0.004-0.058-0.014-0.029-0.007-0.058-0.014c-0.019-0.005-0.053-0.014-0.101-0.029s-0.178-0.067-0.389-0.159c-0.212-0.091-0.38-0.18-0.505-0.267s-0.245-0.181-0.358-0.284c-0.113-0.104-0.236-0.237-0.371-0.401s-0.255-0.353-0.361-0.569c-0.106-0.216-0.185-0.423-0.238-0.619-0.053-0.196-0.087-0.396-0.104-0.598l-0.026-0.303 0.014 0.003 0.014 0.004 0.058 0.029 0.224 0.101c0.149 0.067 0.334 0.125 0.555 0.173s0.353 0.075 0.397 0.079l0.065 0.007h0.13l-0.003-0.004-0.004-0.003-0.004-0.003-0.003-0.004-0.003-0.004-0.004-0.003-0.004-0.003-0.003-0.004-0.014-0.007-0.014-0.007-0.003-0.004-0.004-0.003-0.004-0.003-0.003-0.004-0.014-0.007-0.014-0.007-0.003-0.004c-0.003-0.002-0.044-0.033-0.124-0.092s-0.162-0.139-0.248-0.235c-0.087-0.096-0.173-0.197-0.26-0.303s-0.164-0.219-0.231-0.339c-0.067-0.12-0.139-0.273-0.214-0.458-0.074-0.184-0.13-0.37-0.169-0.557s-0.060-0.372-0.065-0.555c-0.005-0.183 0-0.339 0.014-0.468s0.043-0.276 0.087-0.439c0.043-0.163 0.106-0.336 0.188-0.519l0.123-0.274 0.007-0.022 0.007-0.022 0.004-0.003 0.003-0.004 0.003-0.004 0.004-0.003 0.004 0.003 0.003 0.004 0.003 0.004 0.004 0.003 0.004 0.003 0.003 0.004 0.003 0.004 0.004 0.003 0.014 0.029 0.004 0.003 0.003 0.004 0.195 0.216c0.13 0.144 0.284 0.305 0.462 0.483s0.277 0.27 0.296 0.277c0.019 0.008 0.043 0.030 0.072 0.066s0.125 0.121 0.289 0.255c0.163 0.134 0.377 0.291 0.642 0.468s0.558 0.353 0.88 0.526 0.669 0.329 1.039 0.468c0.37 0.139 0.63 0.23 0.779 0.274s0.404 0.098 0.765 0.166c0.361 0.067 0.632 0.111 0.815 0.13s0.308 0.030 0.375 0.033l0.101 0.003-0.003-0.022-0.004-0.022-0.029-0.18c-0.019-0.12-0.029-0.288-0.029-0.504s0.017-0.415 0.050-0.598c0.034-0.182 0.084-0.367 0.151-0.555s0.133-0.338 0.198-0.451c0.065-0.112 0.151-0.241 0.257-0.385s0.243-0.293 0.411-0.447c0.168-0.154 0.361-0.291 0.577-0.411s0.416-0.211 0.599-0.274c0.183-0.062 0.337-0.103 0.462-0.123s0.188-0.030 0.188-0.033z"></path>
</symbol>
<symbol id="icon-facebook" viewBox="0 0 32 32">
<path fill="#358698" style="fill: var(--color1, #358698)" opacity="0.23" d="M7.111 0h17.778c3.927 0 7.111 3.184 7.111 7.111v17.778c0 3.927-3.184 7.111-7.111 7.111h-17.778c-3.927 0-7.111-3.184-7.111-7.111v-17.778c0-3.927 3.184-7.111 7.111-7.111z"></path>
<path fill="#195c71" style="fill: var(--color2, #195c71)" d="M17.302 24v-7.298h2.573l0.385-2.844h-2.958v-1.816c0-0.823 0.24-1.385 1.481-1.385l1.582-0.001v-2.544c-0.274-0.035-1.213-0.112-2.305-0.112-2.281 0-3.842 1.325-3.842 3.76v2.098h-2.58v2.844h2.58v7.298l3.085 0z"></path>
</symbol>
<symbol id="icon-logo-2" viewBox="0 0 55 32">
<path fill="#fff" style="fill: var(--color3, #fff)" d="M3.339 22.941c0.939 0 1.76 0.187 2.463 0.561s1.244 0.902 1.625 1.582c0.389 0.672 0.584 1.45 0.584 2.335 0 0.876-0.195 1.654-0.584 2.335-0.381 0.68-0.927 1.208-1.638 1.582-0.702 0.374-1.519 0.561-2.45 0.561h-3.339v-8.957h3.339zM3.199 30.010c0.821 0 1.46-0.225 1.917-0.676s0.686-1.089 0.686-1.914c0-0.825-0.229-1.467-0.686-1.927s-1.096-0.689-1.917-0.689h-1.028v5.206h1.028z"></path>
<path fill="#fff" style="fill: var(--color3, #fff)" d="M15.902 28.223c0 0.204-0.013 0.417-0.038 0.638h-4.913c0.034 0.442 0.174 0.783 0.419 1.021 0.254 0.23 0.563 0.345 0.927 0.345 0.542 0 0.918-0.23 1.13-0.689h2.311c-0.119 0.468-0.334 0.889-0.648 1.263-0.305 0.374-0.69 0.668-1.155 0.88s-0.986 0.319-1.562 0.319c-0.694 0-1.312-0.149-1.854-0.447s-0.965-0.723-1.27-1.276c-0.305-0.553-0.457-1.199-0.457-1.939s0.148-1.386 0.444-1.939c0.305-0.553 0.728-0.978 1.27-1.276s1.164-0.447 1.866-0.447c0.686 0 1.295 0.145 1.828 0.434s0.948 0.702 1.244 1.238c0.305 0.536 0.457 1.161 0.457 1.876zM13.68 27.649c0-0.374-0.127-0.672-0.381-0.893s-0.571-0.332-0.952-0.332c-0.364 0-0.673 0.106-0.927 0.319-0.245 0.213-0.398 0.515-0.457 0.906h2.717z"></path>
<path fill="#fff" style="fill: var(--color3, #fff)" d="M20.234 29.856l1.536-5.078h2.311l-2.514 7.12h-2.679l-2.514-7.12h2.323l1.536 5.078z"></path>
<path fill="#fff" style="fill: var(--color3, #fff)" d="M24.626 27.407c0-0.885 0.19-1.671 0.571-2.36 0.381-0.698 0.91-1.238 1.587-1.62 0.686-0.391 1.46-0.587 2.323-0.587 1.058 0 1.964 0.281 2.717 0.842s1.257 1.327 1.511 2.297h-2.387c-0.178-0.374-0.432-0.659-0.762-0.855-0.322-0.196-0.69-0.294-1.105-0.294-0.669 0-1.21 0.234-1.625 0.702s-0.622 1.093-0.622 1.876 0.207 1.408 0.622 1.876c0.415 0.468 0.956 0.702 1.625 0.702 0.415 0 0.783-0.098 1.105-0.294 0.33-0.196 0.584-0.481 0.762-0.855h2.387c-0.254 0.97-0.758 1.735-1.511 2.297-0.753 0.553-1.659 0.829-2.717 0.829-0.863 0-1.638-0.191-2.323-0.574-0.677-0.391-1.206-0.931-1.587-1.62s-0.571-1.476-0.571-2.36z"></path>
<path fill="#fff" style="fill: var(--color3, #fff)" d="M37.89 32c-0.694 0-1.32-0.149-1.879-0.447-0.55-0.298-0.986-0.723-1.308-1.276-0.313-0.553-0.47-1.199-0.47-1.939 0-0.732 0.161-1.374 0.482-1.927 0.322-0.561 0.762-0.991 1.32-1.289s1.185-0.447 1.879-0.447c0.694 0 1.32 0.149 1.879 0.447s0.999 0.727 1.32 1.289c0.322 0.553 0.482 1.195 0.482 1.927s-0.165 1.378-0.495 1.939c-0.322 0.553-0.766 0.978-1.333 1.276-0.559 0.298-1.185 0.447-1.879 0.447zM37.89 30.112c0.415 0 0.766-0.153 1.054-0.459 0.296-0.306 0.444-0.744 0.444-1.314s-0.144-1.008-0.432-1.314c-0.279-0.306-0.626-0.459-1.041-0.459-0.423 0-0.774 0.153-1.054 0.459-0.279 0.298-0.419 0.736-0.419 1.314 0 0.57 0.135 1.008 0.406 1.314 0.279 0.306 0.626 0.459 1.041 0.459z"></path>
<path fill="#fff" style="fill: var(--color3, #fff)" d="M44.92 25.965c0.254-0.391 0.571-0.698 0.952-0.919 0.381-0.23 0.804-0.345 1.27-0.345v2.309h-0.597c-0.542 0-0.948 0.119-1.219 0.357-0.271 0.23-0.406 0.638-0.406 1.225v3.305h-2.171v-7.12h2.171v1.187z"></path>
<path fill="#fff" style="fill: var(--color3, #fff)" d="M54.857 28.223c0 0.204-0.013 0.417-0.038 0.638h-4.913c0.034 0.442 0.174 0.783 0.419 1.021 0.254 0.23 0.563 0.345 0.927 0.345 0.542 0 0.918-0.23 1.13-0.689h2.311c-0.119 0.468-0.334 0.889-0.648 1.263-0.305 0.374-0.69 0.668-1.155 0.88s-0.986 0.319-1.562 0.319c-0.694 0-1.312-0.149-1.854-0.447s-0.965-0.723-1.27-1.276c-0.305-0.553-0.457-1.199-0.457-1.939s0.148-1.386 0.444-1.939c0.305-0.553 0.728-0.978 1.27-1.276s1.164-0.447 1.866-0.447c0.686 0 1.295 0.145 1.828 0.434s0.948 0.702 1.244 1.238c0.305 0.536 0.457 1.161 0.457 1.876zM52.635 27.649c0-0.374-0.127-0.672-0.381-0.893s-0.571-0.332-0.952-0.332c-0.364 0-0.673 0.106-0.927 0.319-0.245 0.213-0.398 0.515-0.457 0.906h2.717z"></path>
<path fill="#fff" style="fill: var(--color3, #fff)" d="M26.892 5.936l3.577 3.595-3.577 3.595-3.577-3.595 3.577-3.595z"></path>
<path fill="#fff" style="fill: var(--color3, #fff)" d="M15.678 9.493l9.323-9.37v4.087l-5.257 5.283 5.257 5.283v4.087l-9.323-9.37z"></path>
<path fill="#fff" style="fill: var(--color3, #fff)" d="M28.671 18.986l9.446-9.493-9.446-9.493v4.087l5.379 5.406-5.379 5.406v4.087z"></path>
</symbol>
<symbol id="icon-logo-1" viewBox="0 0 32 32">
<path d="M15.992 11.044l5.101 5.023-5.101 5.023-5.101-5.023 5.101-5.023z"></path>
<path d="M0 16.014l13.296-13.093v5.711l-7.497 7.382 7.497 7.382v5.711l-13.296-13.093z"></path>
<path d="M18.53 29.279l13.47-13.265-13.47-13.265v5.711l7.671 7.554-7.671 7.554v5.711z"></path>
</symbol>
<symbol id="icon-phone" viewBox="0 0 32 32">
<path d="M23.906 19.766c-2.071-0.188-3.2 2.635-4.706 3.388-2.447 1.318-6.965-3.388-6.965-3.388s-4.706-4.518-3.576-6.965c0.941-1.506 3.765-2.635 3.576-4.706-0.188-1.882-4.329-8.659-6.4-6.776-4.518 4.141-4.894 5.835-4.894 9.224-0.188 5.835 7.341 13.176 7.341 13.176 0.753 0.753 7.341 7.529 13.176 7.341 3.388 0 5.082-0.376 9.224-4.894 1.882-2.071-4.706-6.212-6.776-6.4z"></path>
</symbol>
<symbol id="icon-telegram" viewBox="0 0 32 32">
<path d="M21.266 12.534c0.707-0.707 1.408-2.355-1.536-0.353-2.75 1.893-5.519 3.758-8.306 5.596-0.424 0.192-0.883 0.296-1.349 0.306s-0.929-0.074-1.361-0.247c-1.766-0.53-3.828-1.236-3.828-1.236s-1.408-0.884 1.002-1.827c0 0 10.19-4.182 13.724-5.655 1.354-0.589 5.948-2.473 5.948-2.473s2.121-0.826 1.944 1.178c-0.059 0.824-0.53 3.712-1.001 6.833-0.708 4.417-1.473 9.248-1.473 9.248s-0.118 1.354-1.119 1.59c-1.072-0.018-2.107-0.391-2.944-1.060-0.236-0.177-4.417-2.828-5.949-4.123-0.156-0.106-0.283-0.249-0.368-0.416s-0.127-0.354-0.121-0.542c0.006-0.188 0.059-0.372 0.155-0.534s0.231-0.297 0.393-0.393c2.101-1.923 4.165-3.887 6.189-5.891z"></path>
</symbol>
<symbol id="icon-design" viewBox="0 0 32 32">
<path fill="#015366" style="fill: var(--color4, #015366)" d="M13.517 3c-1.215 0-2.23 0.874-2.454 2.025h-5.546v6.061l-0.561-0.56-0.707 0.706 1.734 1.735c-0.121 0.008-0.234 0.059-0.32 0.144l-3.534 3.535c-0.047 0.046-0.083 0.102-0.109 0.162s-0.038 0.126-0.038 0.192 0.013 0.131 0.038 0.192c0.025 0.061 0.062 0.116 0.109 0.162l3.535 3.537c0.091 0.091 0.213 0.143 0.342 0.146l-1.757 1.756 0.707 0.707 0.56-0.56v4.060l5.551 0.002c0.117 0.564 0.424 1.070 0.871 1.434s1.004 0.563 1.579 0.564h5c0.576-0.002 1.133-0.202 1.579-0.566s0.753-0.87 0.87-1.434h5.050v-5.56l0.561 0.56 0.707-0.707-1.767-1.768-1.768 1.768 0.707 0.707 0.56-0.56v4.56h-4.050c-0.116-0.564-0.423-1.071-0.87-1.435s-1.004-0.564-1.58-0.565h-5c-0.576 0.001-1.134 0.201-1.58 0.565s-0.753 0.871-0.869 1.435h-4.55v-3.061l0.56 0.561 0.707-0.707-1.756-1.756c0.129-0.003 0.251-0.055 0.342-0.146l3.535-3.537c0.047-0.046 0.084-0.102 0.109-0.162s0.038-0.126 0.038-0.192-0.013-0.131-0.038-0.192c-0.025-0.061-0.062-0.116-0.109-0.162l-3.535-3.535c-0.086-0.085-0.199-0.136-0.32-0.144l1.734-1.735-0.707-0.707-0.56 0.56v-5.059h4.558c0.121 0.558 0.429 1.058 0.873 1.417s0.997 0.556 1.569 0.557h5c1.195 0 2.198-0.85 2.441-1.975h4.059v6.561l-0.561-0.56-0.707 0.706 1.768 1.768 1.767-1.768-0.707-0.707-0.56 0.56v-7.559h-5.048c-0.111-0.569-0.416-1.083-0.863-1.452s-1.009-0.572-1.589-0.574h-5zM25.517 14.5h-4c-0.133 0-0.26 0.053-0.354 0.146s-0.146 0.221-0.146 0.354v4.488l0.5 0.012h8c0.133 0 0.26-0.053 0.354-0.146s0.146-0.221 0.146-0.354v-4c0-0.133-0.053-0.26-0.146-0.354s-0.221-0.146-0.354-0.146h-4zM13.517 4h5c0.84 0 1.5 0.66 1.5 1.5s-0.66 1.5-1.5 1.5h-5c-0.84 0-1.5-0.66-1.5-1.5s0.66-1.5 1.5-1.5zM6.017 14.172l2.828 2.828-2.828 2.83-2.829-2.83 2.829-2.828zM22.017 15.5h7v3h-7v-3zM13.517 25h5c0.84 0 1.5 0.66 1.5 1.5s-0.66 1.5-1.5 1.5h-5c-0.84 0-1.5-0.66-1.5-1.5s0.66-1.5 1.5-1.5z"></path>
</symbol>
<symbol id="icon-development" viewBox="0 0 32 32">
<path fill="#015366" style="fill: var(--color4, #015366)" d="M29.25 16.46h-4.91c-0.27 0-0.485-0.215-0.485-0.485s0.215-0.485 0.485-0.485h4.425v-9.52h-12.82c-0.27 0-0.485-0.215-0.485-0.485s0.215-0.485 0.485-0.485h13.305c0.27 0 0.485 0.215 0.485 0.485v10.49c0 0.265-0.215 0.485-0.485 0.485z"></path>
<path fill="#015366" style="fill: var(--color4, #015366)" d="M24.345 18.33c-0.105 0-0.215-0.035-0.3-0.105l-2.38-1.87c-0.115-0.090-0.185-0.235-0.185-0.38 0-0.15 0.070-0.29 0.185-0.38l2.38-1.87c0.145-0.115 0.345-0.135 0.51-0.055s0.275 0.25 0.275 0.435v3.745c0 0.185-0.105 0.355-0.275 0.435-0.070 0.030-0.14 0.045-0.21 0.045zM22.745 15.975l1.11 0.875v-1.75l-1.11 0.875zM12.68 27h-9.93c-0.27 0-0.485-0.215-0.485-0.485v-10.49c0-0.27 0.215-0.485 0.485-0.485h6.1c0.27 0 0.485 0.215 0.485 0.485s-0.215 0.485-0.485 0.485h-5.615v9.52h9.445c0.27 0 0.485 0.215 0.485 0.485s-0.22 0.485-0.485 0.485z"></path>
<path fill="#015366" style="fill: var(--color4, #015366)" d="M12.68 28.875c-0.070 0-0.145-0.015-0.21-0.050-0.165-0.080-0.275-0.25-0.275-0.435v-3.745c0-0.185 0.105-0.355 0.275-0.435 0.165-0.080 0.365-0.060 0.51 0.055l2.38 1.87c0.115 0.090 0.185 0.23 0.185 0.38s-0.070 0.29-0.185 0.38l-2.38 1.87c-0.090 0.075-0.195 0.11-0.3 0.11zM13.165 25.645v1.745l1.11-0.875-1.11-0.87z"></path>
<path fill="#033540" style="fill: var(--color5, #033540)" d="M23.36 32h-1.52c-0.27 0-0.485-0.215-0.485-0.485v-0.65c-0.33-0.095-0.65-0.225-0.95-0.395l-0.46 0.46c-0.19 0.19-0.495 0.19-0.685 0l-1.075-1.075c-0.090-0.090-0.145-0.215-0.145-0.345s0.050-0.25 0.14-0.345l0.46-0.46c-0.17-0.3-0.3-0.62-0.395-0.95h-0.65c-0.27 0-0.485-0.215-0.485-0.485v-1.52c0-0.27 0.215-0.485 0.485-0.485h0.65c0.095-0.33 0.225-0.65 0.39-0.95l-0.46-0.46c-0.19-0.19-0.19-0.495 0-0.685l1.075-1.075c0.19-0.19 0.495-0.19 0.685 0l0.46 0.46c0.3-0.17 0.62-0.3 0.95-0.395v-0.65c0-0.27 0.215-0.485 0.485-0.485h1.52c0.27 0 0.485 0.215 0.485 0.485v0.65c0.33 0.095 0.645 0.225 0.95 0.395l0.46-0.46c0.090-0.090 0.215-0.14 0.345-0.14s0.25 0.050 0.345 0.14l1.075 1.075c0.19 0.19 0.19 0.495 0 0.685l-0.455 0.455c0.17 0.3 0.3 0.62 0.395 0.95h0.65c0.27 0 0.485 0.215 0.485 0.485v1.52c0 0.27-0.215 0.485-0.485 0.485h-0.65c-0.095 0.33-0.225 0.65-0.395 0.95l0.46 0.46c0.19 0.19 0.19 0.495 0 0.685l-1.075 1.075c-0.19 0.19-0.495 0.19-0.685 0l-0.46-0.46c-0.3 0.17-0.62 0.3-0.95 0.395v0.65c0 0.28-0.22 0.495-0.485 0.495zM22.325 31.030h0.55v-0.55c0-0.235 0.165-0.435 0.395-0.475 0.475-0.090 0.92-0.275 1.32-0.55 0.19-0.13 0.45-0.105 0.615 0.060l0.39 0.39 0.39-0.39-0.385-0.385c-0.165-0.165-0.19-0.42-0.060-0.615 0.275-0.41 0.46-0.855 0.55-1.325 0.045-0.23 0.245-0.395 0.475-0.395h0.545v-0.55h-0.545c-0.235 0-0.435-0.165-0.475-0.395-0.090-0.475-0.275-0.92-0.545-1.325-0.13-0.19-0.105-0.45 0.060-0.615l0.385-0.385-0.39-0.39-0.39 0.39c-0.165 0.165-0.425 0.19-0.615 0.060-0.405-0.275-0.85-0.46-1.32-0.545-0.23-0.045-0.395-0.245-0.395-0.475v-0.55h-0.55v0.55c0 0.235-0.165 0.435-0.395 0.475-0.475 0.090-0.92 0.27-1.32 0.545-0.19 0.13-0.45 0.11-0.615-0.055l-0.39-0.39-0.39 0.39 0.385 0.385c0.165 0.165 0.19 0.42 0.060 0.615-0.275 0.405-0.455 0.85-0.545 1.325-0.045 0.23-0.245 0.395-0.475 0.395h-0.55v0.55h0.55c0.235 0 0.435 0.165 0.475 0.395 0.090 0.475 0.27 0.915 0.545 1.32 0.13 0.19 0.105 0.45-0.060 0.615l-0.39 0.39 0.39 0.39 0.39-0.39c0.165-0.165 0.425-0.19 0.615-0.055 0.4 0.275 0.845 0.46 1.32 0.545 0.23 0.045 0.395 0.245 0.395 0.475v0.545z"></path>
<path fill="#033540" style="fill: var(--color5, #033540)" d="M22.595 29.605c-1.705 0-3.090-1.385-3.090-3.090s1.385-3.090 3.090-3.090c1.705 0 3.090 1.385 3.090 3.090s-1.385 3.090-3.090 3.090zM22.595 24.395c-1.17 0-2.12 0.95-2.12 2.12s0.95 2.12 2.12 2.12c1.17 0 2.12-0.95 2.12-2.12 0-1.165-0.95-2.12-2.12-2.12z"></path>
<path fill="#033540" style="fill: var(--color5, #033540)" d="M15.82 21.51h-1.52c-0.27 0-0.485-0.215-0.485-0.485v-0.65c-0.33-0.095-0.65-0.225-0.95-0.395l-0.46 0.46c-0.19 0.19-0.495 0.19-0.685 0l-1.075-1.075c-0.090-0.090-0.145-0.21-0.145-0.34s0.050-0.25 0.14-0.345l0.46-0.46c-0.17-0.3-0.3-0.62-0.395-0.95h-0.65c-0.27 0-0.485-0.215-0.485-0.485v-1.52c0-0.27 0.215-0.485 0.485-0.485h0.65c0.095-0.33 0.225-0.65 0.39-0.95l-0.46-0.46c-0.19-0.19-0.19-0.495 0-0.685l1.075-1.075c0.19-0.19 0.495-0.19 0.685 0l0.46 0.46c0.3-0.17 0.615-0.3 0.95-0.395v-0.65c0-0.27 0.215-0.485 0.485-0.485h1.52c0.27 0 0.485 0.215 0.485 0.485v0.65c0.33 0.095 0.645 0.225 0.95 0.395l0.46-0.46c0.090-0.090 0.215-0.14 0.345-0.14s0.25 0.050 0.345 0.145l1.075 1.075c0.19 0.19 0.19 0.495 0 0.685l-0.455 0.46c0.17 0.3 0.3 0.62 0.395 0.95h0.65c0.27 0 0.485 0.215 0.485 0.485v1.52c0 0.27-0.215 0.485-0.485 0.485h-0.65c-0.095 0.33-0.225 0.645-0.395 0.95l0.46 0.46c0.19 0.19 0.19 0.495 0 0.685l-1.075 1.075c-0.18 0.18-0.505 0.18-0.685 0l-0.46-0.46c-0.3 0.17-0.62 0.3-0.95 0.395v0.65c0 0.26-0.215 0.48-0.485 0.48zM14.785 20.54h0.55v-0.55c0-0.235 0.165-0.435 0.395-0.475 0.475-0.090 0.92-0.275 1.32-0.545 0.19-0.13 0.45-0.11 0.615 0.060l0.39 0.39 0.39-0.39-0.385-0.385c-0.165-0.165-0.19-0.42-0.060-0.615 0.275-0.41 0.46-0.855 0.55-1.325 0.045-0.23 0.245-0.395 0.475-0.395h0.545v-0.55h-0.545c-0.235 0-0.435-0.165-0.475-0.395-0.090-0.475-0.275-0.92-0.545-1.325-0.13-0.195-0.105-0.45 0.060-0.615l0.385-0.385-0.39-0.39-0.39 0.39c-0.165 0.165-0.425 0.19-0.615 0.060-0.405-0.275-0.845-0.46-1.32-0.55-0.23-0.045-0.395-0.245-0.395-0.475v-0.55h-0.55v0.55c0 0.235-0.165 0.435-0.395 0.475-0.475 0.090-0.92 0.275-1.32 0.545-0.19 0.13-0.45 0.11-0.615-0.055l-0.39-0.39-0.39 0.39 0.385 0.385c0.165 0.165 0.19 0.42 0.060 0.615-0.275 0.405-0.455 0.85-0.545 1.325-0.045 0.23-0.245 0.395-0.475 0.395h-0.55v0.55h0.55c0.235 0 0.435 0.165 0.475 0.395 0.090 0.475 0.27 0.915 0.545 1.32 0.13 0.195 0.11 0.45-0.055 0.615l-0.39 0.39 0.39 0.39 0.39-0.39c0.165-0.165 0.425-0.19 0.615-0.055 0.4 0.275 0.84 0.455 1.32 0.545 0.23 0.045 0.395 0.245 0.395 0.475v0.545h-0.005z"></path>
<path fill="#033540" style="fill: var(--color5, #033540)" d="M15.060 19.115c-1.705 0-3.090-1.385-3.090-3.090s1.385-3.090 3.090-3.090c1.705 0 3.090 1.385 3.090 3.090s-1.39 3.090-3.090 3.090zM15.060 13.905c-1.17 0-2.12 0.95-2.12 2.12s0.95 2.12 2.12 2.12c1.17 0 2.12-0.95 2.12-2.12s-0.955-2.12-2.12-2.12z"></path>
<path fill="#033540" style="fill: var(--color5, #033540)" d="M9.63 10.965h-1.52c-0.27 0-0.485-0.215-0.485-0.485v-0.65c-0.33-0.095-0.65-0.225-0.95-0.395l-0.46 0.46c-0.19 0.19-0.495 0.19-0.685 0l-1.075-1.075c-0.090-0.090-0.145-0.215-0.145-0.345s0.050-0.25 0.14-0.345l0.46-0.46c-0.17-0.3-0.3-0.62-0.395-0.95h-0.65c-0.27 0-0.485-0.215-0.485-0.485v-1.51c0-0.27 0.215-0.485 0.485-0.485h0.65c0.095-0.33 0.225-0.65 0.39-0.95l-0.45-0.46c-0.19-0.19-0.19-0.495 0-0.685l1.075-1.075c0.19-0.19 0.495-0.19 0.685 0l0.46 0.46c0.3-0.17 0.62-0.3 0.95-0.395v-0.65c0-0.27 0.215-0.485 0.485-0.485h1.52c0.27 0 0.485 0.215 0.485 0.485v0.65c0.33 0.095 0.645 0.225 0.95 0.395l0.46-0.46c0.090-0.090 0.215-0.14 0.345-0.14s0.25 0.050 0.345 0.145l1.075 1.075c0.19 0.19 0.19 0.495 0 0.685l-0.455 0.46c0.17 0.3 0.3 0.62 0.395 0.95h0.65c0.27 0 0.485 0.215 0.485 0.485v1.52c0 0.27-0.215 0.485-0.485 0.485h-0.65c-0.095 0.33-0.225 0.65-0.395 0.95l0.46 0.46c0.19 0.19 0.19 0.495 0 0.685l-1.075 1.075c-0.18 0.18-0.505 0.18-0.685 0l-0.46-0.46c-0.3 0.17-0.62 0.3-0.95 0.395v0.65c-0.010 0.26-0.225 0.475-0.495 0.475zM8.595 9.995h0.55v-0.55c0-0.235 0.165-0.435 0.395-0.475 0.475-0.090 0.92-0.275 1.32-0.55 0.19-0.13 0.45-0.105 0.615 0.060l0.39 0.39 0.39-0.39-0.385-0.385c-0.165-0.165-0.19-0.42-0.060-0.615 0.275-0.41 0.46-0.855 0.55-1.325 0.045-0.23 0.245-0.395 0.475-0.395h0.545v-0.55h-0.545c-0.235 0-0.435-0.165-0.475-0.395-0.090-0.475-0.275-0.92-0.545-1.325-0.13-0.195-0.105-0.45 0.060-0.615l0.385-0.385-0.39-0.39-0.39 0.39c-0.165 0.165-0.425 0.19-0.615 0.060-0.405-0.275-0.85-0.46-1.32-0.55-0.23-0.045-0.395-0.245-0.395-0.475v-0.55h-0.55v0.55c0 0.235-0.165 0.435-0.395 0.475-0.475 0.090-0.92 0.275-1.32 0.545-0.19 0.13-0.45 0.11-0.615-0.055l-0.39-0.39-0.39 0.39 0.385 0.385c0.165 0.165 0.19 0.42 0.060 0.615-0.275 0.405-0.455 0.85-0.545 1.325-0.045 0.23-0.245 0.395-0.475 0.395h-0.55v0.55h0.55c0.235 0 0.435 0.165 0.475 0.395 0.090 0.475 0.27 0.915 0.545 1.32 0.13 0.195 0.105 0.45-0.060 0.615l-0.39 0.39 0.39 0.39 0.39-0.39c0.165-0.165 0.425-0.19 0.615-0.055 0.4 0.275 0.845 0.46 1.32 0.545 0.23 0.045 0.395 0.245 0.395 0.475v0.55z"></path>
<path fill="#033540" style="fill: var(--color5, #033540)" d="M8.87 8.575c-1.705 0-3.090-1.385-3.090-3.090s1.385-3.090 3.090-3.090c1.705 0 3.090 1.385 3.090 3.090 0 1.7-1.385 3.090-3.090 3.090zM8.87 3.365c-1.17 0-2.12 0.95-2.12 2.12s0.95 2.12 2.12 2.12c1.17 0 2.12-0.95 2.12-2.12s-0.95-2.12-2.12-2.12z"></path>
</symbol>
<symbol id="icon-maintenance" viewBox="0 0 32 32">
<path fill="#033540" style="fill: var(--color5, #033540)" d="M20.9 21.7c-0.2-0.2-0.5-0.2-0.7 0s-0.2 0.5 0 0.7l4.9 5c0.1 0.1 0.2 0.1 0.4 0.1 0.1 0 0.3 0 0.4-0.1 0.2-0.2 0.2-0.5 0-0.7l-5-5z"></path>
<path fill="#033540" style="fill: var(--color5, #033540)" d="M21.6 21l4.9 5c0.1 0.1 0.2 0.1 0.4 0.1 0.1 0 0.3 0 0.4-0.1 0.2-0.2 0.2-0.5 0-0.7l-4.9-5c-0.2-0.2-0.5-0.2-0.7 0-0.3 0.2-0.3 0.5-0.1 0.7z"></path>
<path fill="#015366" style="fill: var(--color4, #015366)" d="M25.5 13.2c0.2 0.1 0.4 0 0.5-0.1l3.7-3.7c0.1-0.1 0.1-0.2 0.1-0.4s-0.1-0.3-0.1-0.4l-1.4-1.4c-0.2-0.2-0.5-0.2-0.7 0l-2.6 2.7-2.2-0.6-0.7-2.3 2.6-2.6c0.2-0.2 0.2-0.5 0-0.7l-1.4-1.4c-0.2-0.2-0.5-0.2-0.7 0l-3.7 3.7c-0.1 0.1-0.2 0.3-0.1 0.5l0.8 3-4 4-7.1-7.1c0-0.2 0.1-0.4 0.1-0.6 0-0.4-0.2-0.8-0.4-1.1l-2.2-2.1c-0.1-0.1-0.2-0.2-0.3-0.2s-0.3 0.1-0.4 0.2l-2.8 2.8c-0.1 0.1-0.1 0.2-0.1 0.4s0 0.2 0.1 0.3l2.1 2.1c0.3 0.3 0.7 0.4 1.1 0.4 0.2 0 0.4-0.1 0.6-0.2l7.2 7.2-3.9 3.9-3-0.8c-0.2 0-0.4 0-0.5 0.1l-3.7 3.7c-0.1 0.1-0.1 0.2-0.1 0.4s0.1 0.3 0.1 0.4l1.4 1.4c0.2 0.2 0.5 0.2 0.7 0l2.5-2.6 2.2 0.6 0.7 2.3-2.6 2.6c-0.2 0.2-0.2 0.5 0 0.7l1.4 1.4c0.1 0.1 0.2 0.1 0.4 0.1s0.3 0 0.4-0.1l3.7-3.7c0.1-0.1 0.2-0.3 0.1-0.5l-0.8-3 2.5-2.5 1 1c0.1 0.1 0.2 0.1 0.4 0.1s0.3 0 0.4-0.1c0.2-0.2 0.5-0.2 0.7 0 0.1 0.1 0.1 0.2 0.1 0.4 0 0.1-0.1 0.3-0.1 0.3s-0.1 0.1-0.1 0.2v0.4c0 0.1 0.1 0.1 0.1 0.2l6.4 6.4c0.5 0.5 1.1 0.7 1.8 0.7s1.3-0.2 1.8-0.7l1.4-1.4c0.5-0.5 0.7-1.1 0.7-1.8s-0.3-1.3-0.7-1.8l-6.4-6.4c-0.2-0.2-0.5-0.2-0.7 0s-0.5 0.2-0.7 0c-0.2-0.2-0.2-0.5 0-0.7 0.1-0.1 0.1-0.2 0.1-0.4s0-0.3-0.1-0.4l-1-1 2.6-2.6 2.8 0.8zM28.4 25.6c0 0.4-0.2 0.8-0.4 1.1l-1.5 1.3c-0.6 0.6-1.5 0.6-2.1 0l-6-6 3.6-3.6 6 6c0.2 0.4 0.4 0.8 0.4 1.2zM5.3 7.5l-1.7-1.7 2.1-2.1 1.8 1.8c0.1 0.1 0.1 0.2 0.1 0.4 0 0.1-0.1 0.3-0.1 0.4l-1.5 1.2c-0.2 0.2-0.5 0.2-0.7 0zM7.8 7.2l9.2 9.2-0.7 0.7-9.2-9.2 0.7-0.7zM11.3 22.4l0.8 3-3.1 3.2-0.7-0.7 2.4-2.4c0.1-0.1 0.2-0.3 0.1-0.5l-0.7-2.8c0-0.2-0.2-0.3-0.4-0.4l-2.7-0.7c-0.2 0-0.4 0-0.5 0.1l-2.4 2.4-0.7-0.6 3.2-3.2 3 0.8c0.2 0 0.4 0 0.5-0.1l4.1-4.1 1.4 1.4-1.1 1.1c0 0 0 0.1-0.1 0.1l-3 3c-0.1 0.1-0.1 0.3-0.1 0.4zM20.2 18.1c0.1 0.1 0.3 0.2 0.4 0.3l-2.2 2.2c-0.1-0.2-0.2-0.3-0.3-0.4s-0.3-0.2-0.4-0.3l2.2-2.2c0.1 0.2 0.2 0.3 0.3 0.4zM19.8 16.4l-3.5 3.5-0.7-0.7 3.5-3.5 0.7 0.7zM21.9 11.5l-3.1 3.1c0 0-0.1 0-0.1 0.1l-1.1 1.1-1.4-1.4 4.2-4.2c0.1-0.1 0.2-0.3 0.1-0.5l-0.8-3 3.3-3.3 0.7 0.7-2.4 2.4c-0.1 0.1-0.2 0.3-0.1 0.5l0.7 2.8c0 0.2 0.2 0.3 0.4 0.4l2.8 0.7c0.2 0 0.4 0 0.5-0.1l2.4-2.4 0.6 0.6-3.2 3.2-3-0.8c-0.1-0.1-0.3-0.1-0.5 0.1z"></path>
</symbol>
<symbol id="icon-logo" viewBox="0 0 32 32">
<path fill="#fff" style="fill: var(--color3, #fff)" d="M1.948 20.049c0.548 0 1.027 0.109 1.437 0.327s0.726 0.526 0.948 0.923c0.227 0.392 0.341 0.846 0.341 1.362 0 0.511-0.114 0.965-0.341 1.362-0.222 0.397-0.541 0.705-0.955 0.923-0.41 0.218-0.886 0.327-1.429 0.327h-1.948v-5.225h1.948zM1.866 24.172c0.479 0 0.852-0.131 1.118-0.394s0.4-0.635 0.4-1.116c0-0.481-0.133-0.856-0.4-1.124s-0.639-0.402-1.118-0.402h-0.6v3.037h0.6z"></path>
<path fill="#fff" style="fill: var(--color3, #fff)" d="M9.276 23.13c0 0.119-0.007 0.243-0.022 0.372h-2.866c0.020 0.258 0.101 0.456 0.244 0.595 0.148 0.134 0.328 0.201 0.541 0.201 0.316 0 0.536-0.134 0.659-0.402h1.348c-0.069 0.273-0.195 0.518-0.378 0.737-0.178 0.218-0.402 0.39-0.674 0.514s-0.575 0.186-0.911 0.186c-0.405 0-0.765-0.087-1.081-0.261s-0.563-0.422-0.741-0.744c-0.178-0.323-0.267-0.7-0.267-1.131s0.086-0.809 0.259-1.131c0.178-0.323 0.425-0.571 0.741-0.744s0.679-0.261 1.089-0.261c0.4 0 0.755 0.084 1.066 0.253s0.553 0.409 0.726 0.722c0.178 0.313 0.267 0.677 0.267 1.094zM7.98 22.795c0-0.218-0.074-0.392-0.222-0.521s-0.333-0.194-0.555-0.194c-0.212 0-0.393 0.062-0.541 0.186-0.143 0.124-0.232 0.3-0.267 0.528h1.585z"></path>
<path fill="#fff" style="fill: var(--color3, #fff)" d="M11.803 24.083l0.896-2.962h1.348l-1.466 4.153h-1.563l-1.466-4.153h1.355l0.896 2.962z"></path>
<path fill="#fff" style="fill: var(--color3, #fff)" d="M14.365 22.654c0-0.516 0.111-0.975 0.333-1.377 0.222-0.407 0.531-0.722 0.926-0.945 0.4-0.228 0.852-0.342 1.355-0.342 0.617 0 1.145 0.164 1.585 0.491s0.733 0.774 0.881 1.34h-1.392c-0.104-0.218-0.252-0.385-0.444-0.499-0.188-0.114-0.402-0.171-0.644-0.171-0.39 0-0.706 0.136-0.948 0.409s-0.363 0.638-0.363 1.094 0.121 0.821 0.363 1.094c0.242 0.273 0.558 0.409 0.948 0.409 0.242 0 0.457-0.057 0.644-0.171 0.193-0.114 0.341-0.28 0.444-0.499h1.392c-0.148 0.566-0.442 1.012-0.881 1.34-0.439 0.323-0.968 0.484-1.585 0.484-0.504 0-0.955-0.112-1.355-0.335-0.395-0.228-0.704-0.543-0.926-0.945s-0.333-0.861-0.333-1.377z"></path>
<path fill="#fff" style="fill: var(--color3, #fff)" d="M22.102 25.333c-0.405 0-0.77-0.087-1.096-0.261-0.321-0.174-0.575-0.422-0.763-0.744-0.183-0.323-0.274-0.7-0.274-1.131 0-0.427 0.094-0.801 0.281-1.124 0.188-0.328 0.444-0.578 0.77-0.752s0.691-0.261 1.096-0.261c0.405 0 0.77 0.087 1.096 0.261s0.583 0.424 0.77 0.752c0.188 0.323 0.281 0.697 0.281 1.124s-0.096 0.804-0.289 1.131c-0.188 0.323-0.447 0.571-0.778 0.744-0.326 0.174-0.691 0.261-1.096 0.261zM22.102 24.232c0.242 0 0.447-0.089 0.615-0.268 0.173-0.179 0.259-0.434 0.259-0.767s-0.084-0.588-0.252-0.767c-0.163-0.179-0.365-0.268-0.607-0.268-0.247 0-0.452 0.089-0.615 0.268-0.163 0.174-0.244 0.429-0.244 0.767 0 0.332 0.079 0.588 0.237 0.767 0.163 0.179 0.365 0.268 0.607 0.268z"></path>
<path fill="#fff" style="fill: var(--color3, #fff)" d="M26.203 21.813c0.148-0.228 0.333-0.407 0.555-0.536 0.222-0.134 0.469-0.201 0.741-0.201v1.347h-0.348c-0.316 0-0.553 0.070-0.711 0.208-0.158 0.134-0.237 0.372-0.237 0.715v1.928h-1.266v-4.153h1.266v0.692z"></path>
<path fill="#fff" style="fill: var(--color3, #fff)" d="M32 23.13c0 0.119-0.007 0.243-0.022 0.372h-2.866c0.020 0.258 0.101 0.456 0.244 0.595 0.148 0.134 0.328 0.201 0.541 0.201 0.316 0 0.536-0.134 0.659-0.402h1.348c-0.069 0.273-0.195 0.518-0.378 0.737-0.178 0.218-0.402 0.39-0.674 0.514s-0.575 0.186-0.911 0.186c-0.405 0-0.765-0.087-1.081-0.261s-0.563-0.422-0.741-0.744c-0.178-0.323-0.267-0.7-0.267-1.131s0.086-0.809 0.259-1.131c0.178-0.323 0.425-0.571 0.741-0.744s0.679-0.261 1.089-0.261c0.4 0 0.755 0.084 1.066 0.253s0.553 0.409 0.726 0.722c0.178 0.313 0.267 0.677 0.267 1.094zM30.704 22.795c0-0.218-0.074-0.392-0.222-0.521s-0.333-0.194-0.555-0.194c-0.212 0-0.392 0.062-0.541 0.186-0.143 0.124-0.232 0.3-0.267 0.528h1.585z"></path>
<path fill="#fff" style="fill: var(--color3, #fff)" d="M15.687 10.13l2.086 2.097-2.086 2.097-2.086-2.097 2.087-2.097z"></path>
<path fill="#fff" style="fill: var(--color3, #fff)" d="M9.145 12.204l5.439-5.466v2.384l-3.066 3.082 3.066 3.082v2.384l-5.439-5.466z"></path>
<path fill="#fff" style="fill: var(--color3, #fff)" d="M16.725 17.742l5.51-5.538-5.51-5.538v2.384l3.138 3.153-3.138 3.154v2.384z"></path>
</symbol><symbol id="icon-next" viewBox="0 0 17 32">
<path d="M1.982 0.3l15.085 15.701-15.085 15.701-1.982-2.178 12.883-13.524-12.883-13.524 1.982-2.178z"></path>
</symbol>
</defs>
</svg>
